<svg xmlns="http://www.w3.org/2000/svg" xmlns:xlink="http://www.w3.org/1999/xlink" width="612" zoomAndPan="magnify" viewBox="0 0 458.88 119.999999" height="160" preserveAspectRatio="xMidYMid meet" version="1.0"><defs><g/><clipPath id="fc92647ddc"><path d="M 0 2.46875 L 113 2.46875 L 113 117.1875 L 0 117.1875 Z M 0 2.46875 " clip-rule="nonzero"/></clipPath></defs><g clip-path="url(#fc92647ddc)"><path fill="#ec5d79" d="M 28.324219 111.992188 L 22.316406 117.1875 L 19.742188 117.1875 C 18.933594 116.761719 18.09375 116.394531 17.308594 115.933594 C 13.332031 113.582031 12.898438 111.542969 15.558594 107.894531 C 15.625 107.769531 15.675781 107.640625 15.707031 107.5 C 15.425781 107.445312 15.15625 107.363281 14.894531 107.253906 C 14.523438 107.039062 14.171875 106.792969 13.839844 106.519531 C 7.054688 101.105469 3.113281 94.105469 3.003906 85.40625 C 2.816406 71.523438 2.945312 57.632812 2.976562 43.746094 C 2.976562 43.109375 3.289062 42.460938 3.457031 41.832031 L 3.4375 42.304688 L 4.6875 43.585938 C 4.789062 44.082031 4.886719 44.585938 4.988281 45.082031 L 5.554688 44.863281 L 4.75 43.5625 L 3.917969 42.277344 L 3.4375 41.847656 L 0.00390625 32.859375 L 0.00390625 25.582031 C 0.300781 24.96875 0.546875 24.339844 0.753906 23.691406 C 3.28125 13.351562 9.75 6.75 19.828125 3.519531 C 20.945312 3.164062 22.058594 2.820312 23.175781 2.46875 L 30.898438 2.46875 C 32.1875 2.824219 33.433594 3.167969 34.699219 3.53125 C 39.765625 4.960938 43.972656 7.773438 47.632812 11.457031 L 48.0625 12.3125 L 49.75 14.40625 L 49.75 14.445312 C 54.703125 22.148438 56.027344 30.167969 52.15625 38.777344 C 48.488281 46.929688 43.191406 54.007812 37.652344 60.910156 C 34.421875 64.964844 30.898438 68.78125 27.039062 73.238281 L 6.8125 48.109375 L 6.8125 49.914062 C 6.8125 61.257812 6.8125 72.601562 6.8125 83.945312 C 6.8125 91.871094 10.054688 98.257812 16.15625 103.277344 C 16.773438 103.878906 17.347656 104.523438 17.871094 105.210938 C 18.164062 104.882812 18.546875 104.46875 18.910156 104.046875 C 27.800781 93.601562 36.816406 83.277344 45.488281 72.667969 C 50.300781 66.769531 54.621094 60.457031 58.96875 54.195312 C 59.988281 52.6875 60.472656 51.023438 60.425781 49.203125 C 60.023438 42.59375 62.667969 37.535156 67.4375 33.183594 C 73.378906 27.757812 79.179688 22.132812 85.035156 16.59375 L 87.539062 14.152344 C 89.175781 12.671875 90.734375 11.085938 92.492188 9.765625 C 93.195312 9.238281 94.699219 8.8125 95.222656 9.191406 C 96.457031 10.089844 95.347656 11.042969 94.644531 11.816406 C 85.957031 21.371094 77.269531 30.921875 68.582031 40.472656 C 66.78125 42.449219 67.027344 44.105469 69.347656 44.582031 C 70.164062 44.742188 71.472656 44.183594 72.054688 43.519531 C 78.964844 35.628906 85.785156 27.660156 92.621094 19.710938 C 94.390625 17.65625 96.175781 15.613281 97.941406 13.558594 C 98.734375 12.644531 99.660156 11.757812 100.820312 12.765625 C 101.984375 13.777344 101.007812 14.707031 100.324219 15.496094 C 92.085938 25.074219 83.839844 34.636719 75.585938 44.1875 C 75.308594 44.507812 75.015625 44.824219 74.730469 45.160156 C 73.976562 46.101562 73.3125 47.105469 74.519531 48.15625 C 75.726562 49.203125 76.890625 48.9375 77.90625 47.800781 C 79.191406 46.359375 80.480469 44.917969 81.714844 43.453125 C 88.867188 35.121094 96.015625 26.785156 103.167969 18.441406 C 103.308594 18.285156 103.449219 18.117188 103.597656 17.964844 C 104.457031 17.023438 105.46875 15.667969 106.761719 16.859375 C 108.050781 18.050781 106.421875 18.863281 105.761719 19.636719 C 97.507812 29.285156 89.238281 38.917969 80.945312 48.535156 C 80.007812 49.628906 79.113281 50.675781 80.695312 51.960938 C 82.109375 53.097656 83.503906 52.964844 84.753906 51.441406 C 92.902344 41.492188 101.042969 31.546875 109.175781 21.605469 C 109.445312 21.273438 109.664062 20.707031 109.980469 20.648438 C 110.875 20.527344 111.773438 20.472656 112.671875 20.484375 C 112.648438 21.234375 112.898438 22.175781 112.546875 22.707031 C 110.0625 26.4375 107.449219 30.109375 104.882812 33.796875 C 104.519531 34.320312 104.199219 34.867188 103.855469 35.402344 L 100.851562 40.085938 C 100.382812 40.496094 99.949219 40.941406 99.550781 41.421875 C 97.21875 44.742188 94.886719 48.070312 92.605469 51.429688 C 91.15625 53.628906 89.347656 55.480469 87.175781 56.980469 C 85.007812 58.476562 82.632812 59.515625 80.058594 60.09375 C 76.476562 60.921875 73.25 62.351562 70.527344 64.679688 C 66.800781 67.867188 63.058594 71.097656 59.800781 74.757812 C 53.484375 81.8125 47.480469 89.148438 41.390625 96.40625 C 38.007812 100.433594 34.71875 104.539062 31.382812 108.601562 Z M 27.394531 16.164062 C 26.535156 16.164062 25.683594 16.246094 24.839844 16.414062 C 23.996094 16.578125 23.179688 16.824219 22.382812 17.148438 C 21.589844 17.476562 20.835938 17.875 20.117188 18.347656 C 19.402344 18.820312 18.738281 19.359375 18.128906 19.960938 C 17.515625 20.566406 16.972656 21.222656 16.488281 21.929688 C 16.007812 22.640625 15.597656 23.390625 15.265625 24.179688 C 14.929688 24.96875 14.675781 25.78125 14.5 26.621094 C 14.324219 27.460938 14.234375 28.308594 14.226562 29.164062 C 14.191406 36.164062 20.085938 42.089844 27.183594 42.191406 C 34.28125 42.292969 40.25 36.40625 40.277344 29.144531 C 40.285156 28.296875 40.207031 27.457031 40.046875 26.621094 C 39.882812 25.789062 39.644531 24.980469 39.324219 24.195312 C 39 23.40625 38.605469 22.660156 38.136719 21.953125 C 37.667969 21.246094 37.136719 20.589844 36.535156 19.988281 C 35.9375 19.382812 35.285156 18.84375 34.582031 18.371094 C 33.875 17.898438 33.132812 17.496094 32.347656 17.167969 C 31.5625 16.839844 30.753906 16.589844 29.917969 16.421875 C 29.085938 16.253906 28.246094 16.167969 27.394531 16.164062 Z M 6.210938 45.824219 L 5.5625 46.0625 L 6.265625 47.34375 L 6.75 47.101562 Z M 6.210938 45.824219 " fill-opacity="1" fill-rule="nonzero"/></g><path fill="#ed5e7c" d="M 28.324219 111.992188 L 31.363281 108.625 L 100.839844 108.625 L 100.839844 40.085938 L 103.84375 35.402344 C 104.148438 36.140625 104.699219 36.871094 104.699219 37.605469 C 104.746094 62.148438 104.757812 86.691406 104.734375 111.234375 C 104.703125 111.65625 104.652344 112.074219 104.582031 112.492188 L 102.210938 112.492188 C 78.398438 112.46875 54.585938 112.445312 30.777344 112.414062 C 29.949219 112.34375 29.128906 112.203125 28.324219 111.992188 Z M 28.324219 111.992188 " fill-opacity="1" fill-rule="nonzero"/><path fill="#ec5e7c" d="M 48.0625 12.3125 L 47.632812 11.457031 C 48.171875 11.167969 48.714844 10.625 49.253906 10.601562 C 58.757812 10.570312 68.265625 10.472656 77.765625 10.707031 C 80.628906 10.777344 83.492188 11.742188 86.308594 12.46875 C 86.824219 12.601562 87.128906 13.546875 87.53125 14.121094 L 85.035156 16.59375 C 84.496094 16.296875 83.984375 15.808594 83.414062 15.738281 C 80.183594 15.308594 76.949219 14.6875 73.699219 14.613281 C 65.726562 14.417969 57.746094 14.488281 49.765625 14.449219 L 49.765625 14.410156 C 49.894531 13.140625 49.628906 12.199219 48.0625 12.3125 Z M 48.0625 12.3125 " fill-opacity="1" fill-rule="nonzero"/><path fill="#ed6480" d="M 48.0625 12.3125 C 49.632812 12.199219 49.898438 13.140625 49.75 14.40625 Z M 48.0625 12.3125 " fill-opacity="1" fill-rule="nonzero"/><path fill="#ed607d" d="M 6.210938 45.824219 L 6.75 47.109375 L 6.265625 47.355469 L 5.5625 46.070312 Z M 6.210938 45.824219 " fill-opacity="1" fill-rule="nonzero"/><path fill="#ed607d" d="M 3.917969 42.277344 L 4.75 43.5625 L 4.679688 43.609375 L 3.4375 42.304688 Z M 3.917969 42.277344 " fill-opacity="1" fill-rule="nonzero"/><path fill="#ed607d" d="M 4.75 43.5625 L 5.546875 44.882812 L 4.980469 45.101562 C 4.878906 44.605469 4.78125 44.105469 4.679688 43.609375 Z M 4.75 43.5625 " fill-opacity="1" fill-rule="nonzero"/><g fill="#ff5e7b" fill-opacity="1"><g transform="translate(107.090409, 89.27563)"><g><path d="M 26.007812 -29.191406 L 26.007812 -36.554688 L 4.179688 -36.554688 L 4.179688 0 L 12.0625 0 L 12.0625 -13.996094 L 24.648438 -13.996094 L 24.648438 -21.148438 L 12.0625 -21.148438 L 12.0625 -29.191406 Z M 26.007812 -29.191406 "/></g></g></g><g fill="#ff5e7b" fill-opacity="1"><g transform="translate(135.026357, 89.27563)"><g><path d="M 17.023438 0.835938 C 25.746094 0.835938 32.273438 -5.585938 32.273438 -14.101562 C 32.273438 -22.613281 25.746094 -28.984375 17.023438 -28.984375 C 8.304688 -28.984375 1.777344 -22.613281 1.777344 -14.101562 C 1.777344 -5.585938 8.304688 0.835938 17.023438 0.835938 Z M 17.023438 -6.371094 C 12.636719 -6.371094 9.503906 -9.503906 9.503906 -14.101562 C 9.503906 -18.644531 12.636719 -21.828125 17.023438 -21.828125 C 21.410156 -21.828125 24.542969 -18.644531 24.542969 -14.101562 C 24.542969 -9.503906 21.410156 -6.371094 17.023438 -6.371094 Z M 17.023438 -6.371094 "/></g></g></g><g fill="#ff5e7b" fill-opacity="1"><g transform="translate(169.12388, 89.27563)"><g><path d="M 17.023438 0.835938 C 25.746094 0.835938 32.273438 -5.585938 32.273438 -14.101562 C 32.273438 -22.613281 25.746094 -28.984375 17.023438 -28.984375 C 8.304688 -28.984375 1.777344 -22.613281 1.777344 -14.101562 C 1.777344 -5.585938 8.304688 0.835938 17.023438 0.835938 Z M 17.023438 -6.371094 C 12.636719 -6.371094 9.503906 -9.503906 9.503906 -14.101562 C 9.503906 -18.644531 12.636719 -21.828125 17.023438 -21.828125 C 21.410156 -21.828125 24.542969 -18.644531 24.542969 -14.101562 C 24.542969 -9.503906 21.410156 -6.371094 17.023438 -6.371094 Z M 17.023438 -6.371094 "/></g></g></g><g fill="#ff5e7b" fill-opacity="1"><g transform="translate(203.221403, 89.27563)"><g><path d="M 24.335938 -38.332031 L 24.335938 -26.632812 C 22.140625 -28.148438 19.53125 -28.984375 16.605469 -28.984375 C 8.042969 -28.984375 1.777344 -22.613281 1.777344 -14.046875 C 1.777344 -5.535156 8.042969 0.886719 16.605469 0.886719 C 20.054688 0.886719 23.082031 -0.3125 25.433594 -2.296875 L 26.320312 0.0507812 L 31.960938 0.0507812 L 31.960938 -38.332031 Z M 17.234375 -6.320312 C 12.792969 -6.320312 9.558594 -9.660156 9.558594 -14.046875 C 9.558594 -18.488281 12.792969 -21.777344 17.234375 -21.777344 C 21.671875 -21.777344 24.910156 -18.488281 24.910156 -14.046875 C 24.910156 -9.660156 21.671875 -6.320312 17.234375 -6.320312 Z M 17.234375 -6.320312 "/></g></g></g><g fill="#ff5e7b" fill-opacity="1"><g transform="translate(238.885422, 89.27563)"><g><path d="M 3.65625 -31.960938 L 11.226562 -31.960938 L 11.226562 -39.011719 L 3.65625 -39.011719 Z M 3.65625 0 L 11.28125 0 L 11.28125 -28.199219 L 3.65625 -28.199219 Z M 3.65625 0 "/></g></g></g><g fill="#ff5e7b" fill-opacity="1"><g transform="translate(253.819399, 89.27563)"><g><path d="M 31.019531 -14.152344 C 31.019531 -22.300781 25.066406 -28.984375 16.398438 -28.984375 C 8.042969 -28.984375 1.777344 -22.558594 1.777344 -14.101562 C 1.777344 -5.640625 8.09375 0.835938 16.398438 0.835938 C 22.976562 0.835938 28.355469 -3.082031 30.394531 -9.242188 L 22.402344 -9.242188 C 21.253906 -7.207031 19.0625 -5.953125 16.398438 -5.953125 C 12.691406 -5.953125 10.183594 -8.09375 9.503906 -11.957031 L 30.863281 -11.957031 C 30.96875 -12.691406 31.019531 -13.421875 31.019531 -14.152344 Z M 16.398438 -22.457031 C 19.84375 -22.457031 22.300781 -20.574219 23.394531 -17.128906 L 9.714844 -17.128906 C 10.601562 -20.472656 13.003906 -22.457031 16.398438 -22.457031 Z M 16.398438 -22.457031 "/></g></g></g><g fill="#ff5e7b" fill-opacity="1"><g transform="translate(286.61151, 89.27563)"><g><path d="M 26.007812 -29.191406 L 26.007812 -36.554688 L 4.179688 -36.554688 L 4.179688 0 L 12.0625 0 L 12.0625 -13.996094 L 24.648438 -13.996094 L 24.648438 -21.148438 L 12.0625 -21.148438 L 12.0625 -29.191406 Z M 26.007812 -29.191406 "/></g></g></g><g fill="#ff5e7b" fill-opacity="1"><g transform="translate(314.547457, 89.27563)"><g><path d="M 3.65625 -31.960938 L 11.226562 -31.960938 L 11.226562 -39.011719 L 3.65625 -39.011719 Z M 3.65625 0 L 11.28125 0 L 11.28125 -28.199219 L 3.65625 -28.199219 Z M 3.65625 0 "/></g></g></g><g fill="#ff5e7b" fill-opacity="1"><g transform="translate(329.481434, 89.27563)"><g><path d="M 19.6875 -28.828125 C 15.875 -28.828125 12.480469 -27.207031 10.339844 -24.703125 L 8.878906 -28.199219 L 3.65625 -28.199219 L 3.65625 0 L 11.28125 0 L 11.28125 -14.777344 C 11.28125 -19.324219 13.683594 -22.140625 17.597656 -22.140625 C 20.890625 -22.140625 22.507812 -20.105469 22.507812 -15.824219 L 22.507812 0 L 30.132812 0 L 30.132812 -17.078125 C 30.132812 -24.230469 26.109375 -28.828125 19.6875 -28.828125 Z M 19.6875 -28.828125 "/></g></g></g><g fill="#ff5e7b" fill-opacity="1"><g transform="translate(362.952363, 89.27563)"><g><path d="M 24.335938 -38.332031 L 24.335938 -26.632812 C 22.140625 -28.148438 19.53125 -28.984375 16.605469 -28.984375 C 8.042969 -28.984375 1.777344 -22.613281 1.777344 -14.046875 C 1.777344 -5.535156 8.042969 0.886719 16.605469 0.886719 C 20.054688 0.886719 23.082031 -0.3125 25.433594 -2.296875 L 26.320312 0.0507812 L 31.960938 0.0507812 L 31.960938 -38.332031 Z M 17.234375 -6.320312 C 12.792969 -6.320312 9.558594 -9.660156 9.558594 -14.046875 C 9.558594 -18.488281 12.792969 -21.777344 17.234375 -21.777344 C 21.671875 -21.777344 24.910156 -18.488281 24.910156 -14.046875 C 24.910156 -9.660156 21.671875 -6.320312 17.234375 -6.320312 Z M 17.234375 -6.320312 "/></g></g></g><g fill="#ff5e7b" fill-opacity="1"><g transform="translate(398.616383, 89.27563)"><g><path d="M 31.019531 -14.152344 C 31.019531 -22.300781 25.066406 -28.984375 16.398438 -28.984375 C 8.042969 -28.984375 1.777344 -22.558594 1.777344 -14.101562 C 1.777344 -5.640625 8.09375 0.835938 16.398438 0.835938 C 22.976562 0.835938 28.355469 -3.082031 30.394531 -9.242188 L 22.402344 -9.242188 C 21.253906 -7.207031 19.0625 -5.953125 16.398438 -5.953125 C 12.691406 -5.953125 10.183594 -8.09375 9.503906 -11.957031 L 30.863281 -11.957031 C 30.96875 -12.691406 31.019531 -13.421875 31.019531 -14.152344 Z M 16.398438 -22.457031 C 19.84375 -22.457031 22.300781 -20.574219 23.394531 -17.128906 L 9.714844 -17.128906 C 10.601562 -20.472656 13.003906 -22.457031 16.398438 -22.457031 Z M 16.398438 -22.457031 "/></g></g></g><g fill="#ff5e7b" fill-opacity="1"><g transform="translate(431.408493, 89.27563)"><g><path d="M 18.070312 -28.355469 C 14.414062 -28.355469 11.90625 -27.207031 9.871094 -24.703125 L 8.511719 -28.199219 L 3.65625 -28.199219 L 3.65625 0 L 11.28125 0 L 11.28125 -14.621094 C 11.28125 -19.21875 12.953125 -21.148438 17.234375 -21.148438 L 20.574219 -21.148438 L 20.574219 -28.355469 Z M 18.070312 -28.355469 "/></g></g></g></svg>